<svg xmlns="http://www.w3.org/2000/svg" viewBox="0 0 512 360"><style>@media (prefers-color-scheme:light){.s-text{fill:#fff}.s-bg{fill:#000 !important;}}</style><defs><clipPath id="squircle"><rect width="512" height="360" rx="60" ry="60"/></clipPath></defs><g clip-path="url(#squircle)"><path fill="#eaff00" d="M0 0h256v360H0z"/><path d="M256 0h256v360H256z" style="fill:#fff" class="s-bg"/><path d="M254 0h4v360h-4z" style="fill:#000"/><path d="M193.6 124.15h-45.66v139.7h-40.37v-139.7H59.69V93.26h138.09z"/><path d="M449.97 214q0 15.88-8.31 28.06-8.31 12.19-23.81 19.08-15.51 6.89-37.3 6.89-24.12 0-40.43-7.08-16.3-7.07-27.01-17.53l20.43-22.65q9.48 8.25 20.92 12.74 11.45 4.49 25.11 4.49 12.68 0 20.55-5.48 7.88-5.47 7.88-15.44 0-9.36-6.58-14.65-6.59-5.29-24.44-10.71-29.9-9.1-42.52-21.47-12.61-12.37-12.61-31.82 0-15.63 8.67-26.71 8.68-11.07 23.33-16.92 14.64-5.85 32.24-5.85 19.82 0 34.96 5.73 15.13 5.72 26.21 16.3l-19.08 21.91q-8.61-7.26-18.58-10.77-9.97-3.5-20.31-3.5-11.57 0-18.58 4.24-7.02 4.25-7.02 12.49 0 5.42 3.08 9.11t10.71 6.96q7.63 3.26 21.17 7.56 16.12 4.93 27.63 11.76 11.5 6.83 17.6 17.17 6.09 10.34 6.09 26.09" class="s-text"/></g></svg>