<svg width="64" height="64" viewBox="0 0 64 64" fill="none" xmlns="http://www.w3.org/2000/svg">
  <rect width="64" height="64" rx="18" fill="#0F172A"/>
  <rect x="8" y="8" width="48" height="48" rx="14" fill="url(#gh_bg)"/>
  <path
    d="M24 40.5C24 37.4624 26.4624 35 29.5 35C32.5376 35 35 37.4624 35 40.5C35 43.5376 32.5376 46 29.5 46C26.4624 46 24 43.5376 24 40.5Z"
    fill="white"
  />
  <path
    d="M39 22C41.4853 22 43.5 24.0147 43.5 26.5C43.5 28.9853 41.4853 31 39 31C36.5147 31 34.5 28.9853 34.5 26.5C34.5 24.0147 36.5147 22 39 22Z"
    fill="white"
  />
  <path
    d="M29.5 40.5V31.5C29.5 28.7386 31.7386 26.5 34.5 26.5H39"
    stroke="white"
    stroke-width="4"
    stroke-linecap="round"
    stroke-linejoin="round"
  />
  <path
    d="M24.5 25.5L29 21L33.5 25.5"
    stroke="#93C5FD"
    stroke-width="3.5"
    stroke-linecap="round"
    stroke-linejoin="round"
  />
  <defs>
    <linearGradient id="gh_bg" x1="14" y1="11" x2="52" y2="56" gradientUnits="userSpaceOnUse">
      <stop stop-color="#1E293B"/>
      <stop offset="1" stop-color="#020617"/>
    </linearGradient>
  </defs>
</svg>
