<svg xmlns="http://www.w3.org/2000/svg" class="size-10 transition-opacity" viewBox="0 0 800 800"><path fill="#326ce5" d="M386 0a52 51 0 0 0-20 5L96 134a52 51 0 0 0-28 35L1 459a52 51 0 0 0 7 39l3 4 187 233a52 51 0 0 0 41 19h299a52 51 0 0 0 41-19l187-233a52 51 0 0 0 10-43l-67-290a52 51 0 0 0-28-35L411 5a52 51 0 0 0-25-5"/><path fill="#fff" d="M388 99c-8 0-16 8-16 18v4l3 16q2 16 1 29-1 5-5 8v7a210 210 0 0 0-135 65l-6-4q-4 1-10-1-10-8-21-20l-11-11-4-3q-5-4-11-4-8 0-13 6-8 12 4 23v1l4 2q7 5 13 8 15 8 24 17 4 5 3 9l6 5q-43 65-33 146l-7 2q-3 4-7 7l-29 5-16 1-4 1q-16 5-14 20 5 13 21 11l5-1 14-5 28-9q7 1 10 4l7-1c16 50 50 90 93 116l-3 7q2 5 1 9-5 12-14 26l-9 13-2 5q-6 15 7 23c8 4 18 0 22-9l2-5q3-7 5-14 5-17 12-29l7-4 4-6a209 209 0 0 0 149 0l4 6q5 0 8 5l11 27 5 15 2 4c4 9 14 13 22 9 8-3 11-14 7-23l-2-4-9-13q-9-13-14-25-1-7 1-10l-3-6c45-27 78-69 94-118l7 1q2-2 9-3 12 2 28 8 7 4 14 6l5 1q16 2 21-12c2-8-4-17-14-19l-4-2-16-1q-17-1-29-5-5-3-7-7l-6-2a209 209 0 0 0-34-145l6-5q-1-4 3-9 9-8 24-17l13-8 4-3c7-6 9-17 4-24-6-7-17-7-24-1l-4 3-11 11q-11 12-22 20-5 2-9 1l-6 4q-55-57-135-65v-7q-4-2-5-8-1-13 1-29l3-16v-4q-2-16-17-18m-20 125-5 85a14 14 0 0 1-23 11l-69-49a167 167 0 0 1 97-47m41 0q57 8 97 47l-69 49h-1a14 14 0 0 1-22-11zm-163 78 63 57v1a14 14 0 0 1-6 24l-81 24q-5-58 24-106m285 1a169 169 0 0 1 24 105l-81-24h-1a14 14 0 0 1-5-25zm-156 61h26l17 20-6 25-24 11-23-11-6-25zm84 69h3l84 14q-19 54-67 85l-33-79a14 14 0 0 1 13-20m-142 0a14 14 0 0 1 13 20h1l-33 79q-46-30-67-85l84-14zm71 34 7 2q4 2 6 6l41 74a171 171 0 0 1-107 0l41-74q4-7 12-8"/></svg>